<svg xmlns="http://www.w3.org/2000/svg" xmlns:xlink="http://www.w3.org/1999/xlink" width="1080" zoomAndPan="magnify" viewBox="0 0 810 809.999993" height="1080" preserveAspectRatio="xMidYMid meet" version="1.0"><defs><clipPath id="5ff57b86f1"><path d="M 37 37 L 772.695312 37 L 772.695312 772.695312 L 37 772.695312 Z M 37 37 " clip-rule="nonzero"/></clipPath><clipPath id="ec8d52bfd3"><path d="M 74.804688 37.304688 L 735.195312 37.304688 C 745.140625 37.304688 754.679688 41.253906 761.710938 48.289062 C 768.746094 55.320312 772.695312 64.859375 772.695312 74.804688 L 772.695312 735.195312 C 772.695312 745.140625 768.746094 754.679688 761.710938 761.710938 C 754.679688 768.746094 745.140625 772.695312 735.195312 772.695312 L 74.804688 772.695312 C 64.859375 772.695312 55.320312 768.746094 48.289062 761.710938 C 41.253906 754.679688 37.304688 745.140625 37.304688 735.195312 L 37.304688 74.804688 C 37.304688 64.859375 41.253906 55.320312 48.289062 48.289062 C 55.320312 41.253906 64.859375 37.304688 74.804688 37.304688 Z M 74.804688 37.304688 " clip-rule="nonzero"/></clipPath><clipPath id="743c320bb0"><path d="M 64.410156 60.007812 L 745.589844 60.007812 L 745.589844 750 L 64.410156 750 Z M 64.410156 60.007812 " clip-rule="nonzero"/></clipPath><clipPath id="45c1de6c5d"><path d="M 87.660156 60.007812 L 722.339844 60.007812 C 735.179688 60.007812 745.589844 70.417969 745.589844 83.257812 L 745.589844 726.742188 C 745.589844 739.582031 735.179688 749.992188 722.339844 749.992188 L 87.660156 749.992188 C 74.820312 749.992188 64.410156 739.582031 64.410156 726.742188 L 64.410156 83.257812 C 64.410156 70.417969 74.820312 60.007812 87.660156 60.007812 Z M 87.660156 60.007812 " clip-rule="nonzero"/></clipPath><clipPath id="a5039cfe17"><path d="M 266.445312 60.007812 L 294.757812 60.007812 L 294.757812 749.992188 L 266.445312 749.992188 Z M 266.445312 60.007812 " clip-rule="nonzero"/></clipPath><clipPath id="687f347b92"><path d="M 503.578125 60.007812 L 531.886719 60.007812 L 531.886719 749.992188 L 503.578125 749.992188 Z M 503.578125 60.007812 " clip-rule="nonzero"/></clipPath><clipPath id="556f52dc71"><path d="M 64.402344 390.847656 L 745.582031 390.847656 L 745.582031 419.160156 L 64.402344 419.160156 Z M 64.402344 390.847656 " clip-rule="nonzero"/></clipPath><clipPath id="21fa7aabdf"><path d="M 195.257812 589.023438 L 749 589.023438 L 749 673.773438 L 195.257812 673.773438 Z M 195.257812 589.023438 " clip-rule="nonzero"/></clipPath><clipPath id="6ed3a93fac"><path d="M 195.257812 568.148438 L 749 568.148438 L 749 652.898438 L 195.257812 652.898438 Z M 195.257812 568.148438 " clip-rule="nonzero"/></clipPath><clipPath id="f6cdc20067"><path d="M 165.25 604.632812 L 196 604.632812 L 196 667.632812 L 165.25 667.632812 Z M 165.25 604.632812 " clip-rule="nonzero"/></clipPath><clipPath id="6f45785803"><path d="M 168 177 L 470 177 L 470 626 L 168 626 Z M 168 177 " clip-rule="nonzero"/></clipPath><clipPath id="895cf3d716"><path d="M 81 250.148438 L 464.5 171.414062 L 544.894531 562.996094 L 161.394531 641.730469 Z M 81 250.148438 " clip-rule="nonzero"/></clipPath><clipPath id="9d11317570"><path d="M 81 250.148438 L 464.5 171.414062 L 544.894531 562.996094 L 161.394531 641.730469 Z M 81 250.148438 " clip-rule="nonzero"/></clipPath><clipPath id="8584265647"><path d="M 324 177 L 470 177 L 470 356 L 324 356 Z M 324 177 " clip-rule="nonzero"/></clipPath><clipPath id="3bb2d5c554"><path d="M 81 250.148438 L 464.5 171.414062 L 544.894531 562.996094 L 161.394531 641.730469 Z M 81 250.148438 " clip-rule="nonzero"/></clipPath><clipPath id="a659d8b8d2"><path d="M 81 250.148438 L 464.5 171.414062 L 544.894531 562.996094 L 161.394531 641.730469 Z M 81 250.148438 " clip-rule="nonzero"/></clipPath><clipPath id="2c0de6e8f7"><path d="M 160 237 L 462 237 L 462 640 L 160 640 Z M 160 237 " clip-rule="nonzero"/></clipPath><clipPath id="225622f9e6"><path d="M 81 250.148438 L 464.5 171.414062 L 544.894531 562.996094 L 161.394531 641.730469 Z M 81 250.148438 " clip-rule="nonzero"/></clipPath><clipPath id="4f1b57c3d0"><path d="M 81 250.148438 L 464.5 171.414062 L 544.894531 562.996094 L 161.394531 641.730469 Z M 81 250.148438 " clip-rule="nonzero"/></clipPath><clipPath id="67cc450535"><path d="M 165.253906 646.644531 L 196.003906 646.644531 L 196.003906 667.628906 L 165.253906 667.628906 Z M 165.253906 646.644531 " clip-rule="nonzero"/></clipPath></defs><rect x="-81" width="972" fill="#ffffff" y="-80.999999" height="971.999992" fill-opacity="1"/><rect x="-81" width="972" fill="#ffffff" y="-80.999999" height="971.999992" fill-opacity="1"/><g clip-path="url(#5ff57b86f1)"><g clip-path="url(#ec8d52bfd3)"><path fill="#919191" d="M 37.304688 37.304688 L 772.695312 37.304688 L 772.695312 772.695312 L 37.304688 772.695312 Z M 37.304688 37.304688 " fill-opacity="1" fill-rule="nonzero"/></g></g><g clip-path="url(#743c320bb0)"><g clip-path="url(#45c1de6c5d)"><path fill="#ffffff" d="M 64.410156 60.007812 L 745.589844 60.007812 L 745.589844 749.171875 L 64.410156 749.171875 Z M 64.410156 60.007812 " fill-opacity="1" fill-rule="nonzero"/></g></g><g clip-path="url(#a5039cfe17)"><path fill="#d9d9d9" d="M 266.445312 60.007812 L 294.757812 60.007812 L 294.757812 749.972656 L 266.445312 749.972656 Z M 266.445312 60.007812 " fill-opacity="1" fill-rule="nonzero"/></g><g clip-path="url(#687f347b92)"><path fill="#d9d9d9" d="M 503.578125 60.007812 L 531.886719 60.007812 L 531.886719 749.972656 L 503.578125 749.972656 Z M 503.578125 60.007812 " fill-opacity="1" fill-rule="nonzero"/></g><g clip-path="url(#556f52dc71)"><path fill="#d9d9d9" d="M 745.582031 390.847656 L 745.582031 419.160156 L 64.351562 419.160156 L 64.351562 390.847656 Z M 745.582031 390.847656 " fill-opacity="1" fill-rule="nonzero"/></g><g clip-path="url(#21fa7aabdf)"><path fill="#ff914d" d="M 740.097656 638.734375 C 723.617188 638.734375 715.710938 630.5625 704.859375 619.304688 L 704.589844 619.039062 C 691.59375 605.640625 675.515625 589.023438 644.296875 589.023438 C 612.808594 589.023438 596.730469 605.773438 583.734375 619.304688 C 572.878906 630.5625 564.976562 638.734375 548.496094 638.734375 C 532.015625 638.734375 524.109375 630.5625 513.257812 619.304688 L 512.855469 618.902344 C 499.992188 605.640625 484.046875 589.160156 453.097656 589.160156 C 421.609375 589.160156 405.53125 605.90625 392.667969 619.304688 L 392.535156 619.441406 C 381.679688 630.695312 373.777344 638.867188 357.296875 638.867188 C 340.816406 638.867188 332.910156 630.695312 322.058594 619.441406 L 321.65625 619.039062 C 308.792969 605.773438 292.714844 589.160156 261.496094 589.160156 C 230.007812 589.160156 213.929688 605.90625 201.066406 619.304688 L 200.933594 619.441406 C 190.078125 630.695312 182.175781 638.867188 165.695312 638.867188 C 149.214844 638.867188 141.308594 630.695312 130.457031 619.441406 L 130.1875 619.171875 C 117.191406 605.773438 101.113281 589.160156 69.894531 589.160156 L 61.855469 589.160156 L 61.855469 623.996094 L 69.894531 623.996094 C 86.375 623.996094 94.28125 632.167969 105.132812 643.421875 L 105.535156 643.824219 C 118.398438 657.089844 134.476562 673.703125 165.695312 673.703125 C 197.179688 673.703125 213.257812 656.957031 226.121094 643.558594 L 226.257812 643.421875 C 237.109375 632.167969 245.015625 623.996094 261.496094 623.996094 C 277.976562 623.996094 285.878906 632.167969 296.734375 643.421875 L 297 643.691406 C 310 657.089844 326.078125 673.703125 357.296875 673.703125 C 388.78125 673.703125 404.859375 656.957031 417.722656 643.558594 L 417.859375 643.421875 C 428.710938 632.167969 436.617188 623.996094 453.097656 623.996094 C 469.710938 623.996094 477.480469 632.167969 488.199219 643.421875 C 501.0625 656.824219 517.140625 673.570312 548.628906 673.570312 C 580.117188 673.570312 596.195312 656.824219 609.058594 643.421875 L 609.191406 643.289062 C 620.042969 632.035156 627.949219 623.863281 644.429688 623.863281 C 660.910156 623.863281 668.816406 632.035156 679.667969 643.289062 L 679.9375 643.558594 C 692.933594 656.957031 709.011719 673.570312 740.097656 673.570312 L 748.136719 673.570312 L 748.136719 638.734375 Z M 740.097656 638.734375 " fill-opacity="1" fill-rule="nonzero"/></g><g clip-path="url(#6ed3a93fac)"><path fill="#ff5757" d="M 740.097656 617.859375 C 723.617188 617.859375 715.710938 609.6875 704.859375 598.429688 L 704.589844 598.164062 C 691.59375 584.765625 675.515625 568.148438 644.296875 568.148438 C 612.808594 568.148438 596.730469 584.898438 583.734375 598.429688 C 572.878906 609.6875 564.976562 617.859375 548.496094 617.859375 C 532.015625 617.859375 524.109375 609.6875 513.257812 598.429688 L 512.855469 598.027344 C 499.992188 584.765625 484.046875 568.285156 453.097656 568.285156 C 421.609375 568.285156 405.53125 585.03125 392.667969 598.429688 L 392.535156 598.566406 C 381.679688 609.820312 373.777344 617.992188 357.296875 617.992188 C 340.816406 617.992188 332.910156 609.820312 322.058594 598.566406 L 321.65625 598.164062 C 308.792969 584.898438 292.714844 568.285156 261.496094 568.285156 C 230.007812 568.285156 213.929688 585.03125 201.066406 598.429688 L 200.933594 598.566406 C 190.078125 609.820312 182.175781 617.992188 165.695312 617.992188 C 149.214844 617.992188 141.308594 609.820312 130.457031 598.566406 L 130.1875 598.296875 C 117.191406 584.898438 101.113281 568.285156 69.894531 568.285156 L 61.855469 568.285156 L 61.855469 603.121094 L 69.894531 603.121094 C 86.375 603.121094 94.28125 611.292969 105.132812 622.550781 L 105.535156 622.949219 C 118.398438 636.214844 134.476562 652.828125 165.695312 652.828125 C 197.179688 652.828125 213.257812 636.082031 226.121094 622.683594 L 226.257812 622.550781 C 237.109375 611.292969 245.015625 603.121094 261.496094 603.121094 C 277.976562 603.121094 285.878906 611.292969 296.734375 622.550781 L 297 622.816406 C 310 636.214844 326.078125 652.828125 357.296875 652.828125 C 388.78125 652.828125 404.859375 636.082031 417.722656 622.683594 L 417.859375 622.550781 C 428.710938 611.292969 436.617188 603.121094 453.097656 603.121094 C 469.710938 603.121094 477.480469 611.292969 488.199219 622.550781 C 501.0625 635.949219 517.140625 652.695312 548.628906 652.695312 C 580.117188 652.695312 596.195312 635.949219 609.058594 622.550781 L 609.191406 622.414062 C 620.042969 611.160156 627.949219 602.988281 644.429688 602.988281 C 660.910156 602.988281 668.816406 611.160156 679.667969 622.414062 L 679.9375 622.683594 C 692.933594 636.082031 709.011719 652.695312 740.097656 652.695312 L 748.136719 652.695312 L 748.136719 617.859375 Z M 740.097656 617.859375 " fill-opacity="1" fill-rule="nonzero"/></g><g clip-path="url(#f6cdc20067)"><path fill="#ff5757" d="M 196 667.4375 C 178.925781 667.140625 165.179688 653.203125 165.179688 636.042969 C 165.179688 618.898438 178.925781 604.960938 196 604.664062 Z M 196 667.4375 " fill-opacity="1" fill-rule="nonzero"/></g><g clip-path="url(#6f45785803)"><g clip-path="url(#895cf3d716)"><g clip-path="url(#9d11317570)"><path fill="#545454" d="M 469.53125 202.167969 C 469.140625 210.046875 466.902344 217.671875 463.488281 224.824219 C 460.753906 230.554688 457.667969 236.121094 454.738281 241.757812 L 366.136719 381.753906 C 361.207031 389.34375 356.273438 396.933594 351.339844 404.523438 C 349.789062 406.910156 348.222656 409.289062 346.683594 411.683594 C 333.839844 431.722656 320.964844 451.738281 308.175781 471.808594 C 301.394531 482.453125 294.800781 493.21875 288.0625 503.894531 C 275.253906 524.1875 262.371094 544.4375 249.589844 564.75 C 246.234375 570.078125 243.21875 575.621094 239.839844 580.929688 C 239.011719 582.230469 237.359375 583.003906 236.085938 584.019531 C 234.015625 586.59375 231.949219 589.167969 229.878906 591.738281 C 227.132812 594.847656 224.617188 598.210938 221.582031 601.003906 C 217.464844 604.789062 213.21875 608.558594 208.539062 611.574219 C 202.007812 615.78125 195.148438 619.53125 188.183594 622.988281 C 184.554688 624.792969 180.476562 625.914062 176.226562 625.40625 C 174.074219 623.761719 171.921875 622.113281 169.765625 620.464844 C 169.332031 616.269531 168.4375 612.0625 168.554688 607.882812 C 168.785156 599.855469 169.191406 591.789062 170.253906 583.835938 C 171.472656 574.738281 173.246094 565.679688 177.214844 557.257812 C 177.496094 556.660156 178.121094 556.226562 178.585938 555.714844 C 180.050781 553.59375 181.515625 551.472656 182.980469 549.347656 C 183.535156 548.238281 183.976562 547.054688 184.652344 546.023438 C 198.386719 525.132812 212.246094 504.316406 225.878906 483.359375 C 237.714844 465.167969 249.300781 446.824219 260.988281 428.539062 C 265.925781 420.816406 270.839844 413.074219 275.765625 405.34375 C 286.285156 388.839844 296.84375 372.363281 307.3125 355.824219 C 312.925781 346.953125 318.4375 338.011719 323.859375 329.019531 C 324.796875 327.464844 410.097656 192.859375 416.25 187.765625 C 421.484375 183.429688 427.46875 179.746094 434.320312 177.972656 C 441.519531 176.105469 448.203125 177.691406 454.925781 180.292969 C 460.222656 182.339844 464.957031 185.09375 467.144531 190.386719 C 468.65625 194.046875 469.726562 198.269531 469.53125 202.167969 Z M 469.53125 202.167969 " fill-opacity="1" fill-rule="nonzero"/></g></g></g><g clip-path="url(#8584265647)"><g clip-path="url(#3bb2d5c554)"><g clip-path="url(#a659d8b8d2)"><path fill="#545454" d="M 469.53125 202.167969 C 469.140625 210.046875 466.902344 217.671875 463.488281 224.824219 C 460.753906 230.554688 457.667969 236.121094 454.738281 241.757812 L 382.570312 355.785156 C 377.410156 352.800781 361.988281 344.558594 356.894531 341.457031 C 350.347656 337.472656 343.9375 333.257812 337.390625 329.261719 C 334.269531 327.359375 330.996094 325.703125 327.75 324.019531 C 327.152344 323.714844 326.34375 323.820312 325.632812 323.734375 C 323.699219 322.550781 323.667969 321.308594 324.90625 319.351562 C 335.636719 302.378906 345.648438 284.972656 356.710938 268.203125 C 374.75 240.847656 390.636719 208.980469 416.25 187.765625 C 421.484375 183.429688 427.46875 179.746094 434.320312 177.972656 C 441.519531 176.105469 448.199219 177.691406 454.925781 180.292969 C 460.222656 182.339844 464.957031 185.09375 467.144531 190.386719 C 468.65625 194.046875 469.726562 198.269531 469.53125 202.167969 Z M 469.53125 202.167969 " fill-opacity="1" fill-rule="nonzero"/></g></g></g><g clip-path="url(#2c0de6e8f7)"><g clip-path="url(#225622f9e6)"><g clip-path="url(#4f1b57c3d0)"><path fill="#919191" d="M 372.375 350.433594 C 378.894531 339.75 385.410156 329.058594 391.945312 318.378906 C 393.871094 315.230469 395.863281 312.117188 397.8125 308.980469 C 407.042969 294.109375 416.28125 279.234375 425.5 264.351562 C 430.550781 256.203125 435.601562 248.054688 440.574219 239.855469 C 442.058594 237.402344 443.976562 236.929688 446.441406 238.011719 C 449.222656 239.230469 451.976562 240.507812 454.738281 241.757812 C 456.152344 242.660156 457.59375 243.519531 458.972656 244.46875 C 461.203125 246 461.832031 248.113281 460.488281 250.441406 C 458.765625 253.429688 456.769531 256.257812 454.898438 259.160156 C 439.421875 283.160156 423.878906 307.113281 408.515625 331.179688 C 403.25 339.429688 398.363281 347.929688 393.429688 356.386719 C 389.195312 363.648438 385.101562 370.992188 381.027344 378.34375 C 377.886719 384.007812 373.144531 384.628906 367.898438 382.132812 C 367.371094 381.882812 366.726562 381.875 366.136719 381.753906 C 363.085938 379.597656 360.03125 377.445312 356.625 375.039062 C 362.089844 366.503906 367.230469 358.46875 372.375 350.433594 Z M 236.085938 584.019531 C 231.089844 580.738281 226.097656 577.449219 221.09375 574.183594 C 208.394531 565.898438 195.6875 557.625 182.980469 549.347656 C 181.515625 551.472656 180.050781 553.59375 178.585938 555.714844 C 180.046875 556.882812 181.445312 558.136719 182.980469 559.199219 C 197.425781 569.191406 211.894531 579.144531 226.351562 589.121094 C 227.554688 589.953125 228.703125 590.867188 229.878906 591.738281 C 231.949219 589.167969 234.015625 586.59375 236.085938 584.019531 Z M 167.945312 621.84375 C 165.792969 625.292969 163.726562 628.796875 161.660156 632.296875 C 160.160156 634.84375 161.113281 636.992188 163.144531 638.59375 C 165.273438 640.273438 167.941406 639.984375 169.308594 637.921875 C 171.933594 633.960938 173.957031 629.601562 176.226562 625.40625 C 174.074219 623.761719 171.921875 622.113281 169.765625 620.464844 C 169.148438 620.917969 168.324219 621.242188 167.945312 621.84375 Z M 167.945312 621.84375 " fill-opacity="1" fill-rule="nonzero"/></g></g></g><g clip-path="url(#67cc450535)"><path fill="#ff914d" d="M 196.003906 667.4375 C 178.925781 667.140625 165.179688 653.203125 165.179688 636.039062 C 165.179688 618.894531 178.925781 604.957031 196.003906 604.660156 Z M 196.003906 667.4375 " fill-opacity="1" fill-rule="nonzero"/></g></svg>